<svg width="42" height="50" viewBox="0 0 42 50" fill="none" xmlns="http://www.w3.org/2000/svg">
<path d="M20.6543 5.55664C20.8786 5.48077 21.1214 5.48077 21.3457 5.55664L31.3691 8.95117H31.3701C32.8628 9.4548 34.1625 10.4244 35.084 11.7227C36.0055 13.0211 36.5014 14.5823 36.5 16.1846V24.5C36.5 30.4333 32.9463 35.0772 29.2334 38.3057C25.5277 41.5279 21.7404 43.2719 21.4453 43.4043H21.4443C21.3043 43.4675 21.1527 43.5 21 43.5C20.8473 43.5 20.6957 43.4675 20.5557 43.4043H20.5547C20.2596 43.2719 16.4723 41.5279 12.7666 38.3057C9.05372 35.0772 5.5 30.4333 5.5 24.5V16.1846C5.49857 14.5823 5.99445 13.0211 6.91602 11.7227C7.83749 10.4244 9.13717 9.4548 10.6299 8.95117H10.6309L20.6543 5.55664Z" stroke="#9F6C4D"/>
<path d="M20.4932 0.581055C20.822 0.472399 21.178 0.472399 21.5068 0.581055L34.6631 4.93359H34.6641C36.6566 5.59029 38.3893 6.85351 39.6162 8.54199C40.843 10.2304 41.5019 12.2594 41.5 14.3398V25C41.5 32.6615 36.8017 38.6495 31.9131 42.8018C27.0343 46.9457 22.0488 49.1886 21.6523 49.3623L21.6514 49.3633C21.4466 49.4535 21.2244 49.5 21 49.5C20.7756 49.5 20.5534 49.4535 20.3486 49.3633L20.3477 49.3623C19.9512 49.1886 14.9657 46.9457 10.0869 42.8018C5.19831 38.6495 0.5 32.6615 0.5 25V14.3398L0.507812 13.9502C0.583078 12.0069 1.23367 10.125 2.38379 8.54199C3.61069 6.85351 5.34342 5.59029 7.33594 4.93359H7.33691L20.4932 0.581055Z" stroke="#9F6C4D"/>
<path d="M14 23L20 29L29 20" stroke="#9F6C4D" stroke-linecap="round"/>
</svg>
