<svg width="50" height="50" viewBox="0 0 50 50" fill="none" xmlns="http://www.w3.org/2000/svg">
<g clip-path="url(#clip0_6182_7479)">
<path d="M14.583 0.5C15.0029 0.5 15.4062 0.666935 15.7031 0.963867C15.9999 1.26071 16.1669 1.66328 16.167 2.08301C16.167 4.97829 17.317 7.75546 19.3643 9.80273C21.2836 11.7219 23.8439 12.8525 26.542 12.9863L27.083 13C27.5029 13 27.9062 13.1669 28.2031 13.4639C28.4999 13.7607 28.6669 14.1633 28.667 14.583C28.667 15.0029 28.5001 15.4062 28.2031 15.7031C27.9062 16.0001 27.5029 16.167 27.083 16.167C24.1878 16.1671 21.4115 17.3171 19.3643 19.3643C17.3171 21.4115 16.1671 24.1878 16.167 27.083C16.167 27.5029 16.0001 27.9062 15.7031 28.2031C15.4062 28.5001 15.0029 28.667 14.583 28.667C14.1633 28.6669 13.7607 28.4999 13.4639 28.2031C13.1669 27.9062 13 27.5029 13 27.083L12.9863 26.542C12.8525 23.8439 11.7219 21.2836 9.80273 19.3643C7.75546 17.317 4.97829 16.167 2.08301 16.167C1.66328 16.1669 1.26071 15.9999 0.963867 15.7031C0.666935 15.4062 0.5 15.0029 0.5 14.583C0.500086 14.1632 0.667011 13.7607 0.963867 13.4639C1.22366 13.2041 1.56433 13.0438 1.92676 13.0078L2.08301 13C4.97829 13 7.75546 11.85 9.80273 9.80273C11.85 7.75546 13 4.97829 13 2.08301L13.0078 1.92676C13.0438 1.56433 13.2041 1.22366 13.4639 0.963867C13.7607 0.667011 14.1632 0.500086 14.583 0.5Z" stroke="#9F6C4D"/>
<path d="M22.916 33.833C23.3359 33.833 23.7392 33.9999 24.0361 34.2969C24.3329 34.5937 24.4999 34.9963 24.5 35.416C24.5 36.6535 24.9912 37.8407 25.8662 38.7158C26.7413 39.5909 27.9285 40.0829 29.166 40.083C29.5859 40.083 29.9892 40.2499 30.2861 40.5469C30.5829 40.8437 30.7499 41.2463 30.75 41.666C30.75 42.0859 30.5831 42.4892 30.2861 42.7861C29.9892 43.0831 29.5859 43.25 29.166 43.25C27.9285 43.2501 26.7413 43.7411 25.8662 44.6162C24.9911 45.4913 24.5001 46.6785 24.5 47.916C24.5 48.3359 24.3331 48.7392 24.0361 49.0361C23.7392 49.3331 23.3359 49.5 22.916 49.5C22.4963 49.4999 22.0937 49.3329 21.7969 49.0361C21.4999 48.7392 21.333 48.3359 21.333 47.916C21.3329 46.6785 20.8409 45.4913 19.9658 44.6162C19.0907 43.7412 17.9035 43.25 16.666 43.25C16.2463 43.2499 15.8437 43.0829 15.5469 42.7861C15.2499 42.4892 15.083 42.0859 15.083 41.666C15.0831 41.2462 15.25 40.8437 15.5469 40.5469C15.8437 40.25 16.2462 40.0831 16.666 40.083C17.9037 40.083 19.0907 39.591 19.9658 38.7158C20.841 37.8407 21.333 36.6537 21.333 35.416C21.3331 34.9962 21.5 34.5937 21.7969 34.2969C22.0937 34 22.4962 33.8331 22.916 33.833Z" stroke="#9F6C4D"/>
<path d="M37.5 15.083C37.9198 15.083 38.3222 15.25 38.6191 15.5469C38.916 15.8437 39.0829 16.2462 39.083 16.666C39.083 19.0088 40.0143 21.2555 41.6709 22.9121C43.3275 24.5687 45.5742 25.5 47.917 25.5C48.3368 25.5001 48.7393 25.667 49.0361 25.9639C49.333 26.2608 49.5 26.6632 49.5 27.083C49.5 27.5029 49.333 27.9052 49.0361 28.2021C48.7393 28.499 48.3368 28.6659 47.917 28.666C45.5742 28.666 43.3275 29.5973 41.6709 31.2539C40.0143 32.9105 39.083 35.1573 39.083 37.5C39.0829 37.9198 38.916 38.3223 38.6191 38.6191C38.3222 38.916 37.9199 39.083 37.5 39.083C37.0801 39.083 36.6778 38.916 36.3809 38.6191C36.084 38.3223 35.9171 37.9198 35.917 37.5C35.917 35.1573 34.9857 32.9105 33.3291 31.2539C31.6725 29.5973 29.4258 28.666 27.083 28.666C26.6632 28.6659 26.2607 28.499 25.9639 28.2021C25.667 27.9052 25.5 27.5029 25.5 27.083C25.5 26.6632 25.667 26.2608 25.9639 25.9639C26.2607 25.667 26.6632 25.5001 27.083 25.5C29.4258 25.5 31.6725 24.5687 33.3291 22.9121C34.9857 21.2555 35.917 19.0088 35.917 16.666C35.9171 16.2462 36.084 15.8437 36.3809 15.5469C36.6778 15.25 37.0802 15.083 37.5 15.083Z" stroke="#9F6C4D"/>
</g>
<defs>
<clipPath id="clip0_6182_7479">
<rect width="50" height="50" fill="white"/>
</clipPath>
</defs>
</svg>
