<svg width="50" height="50" viewBox="0 0 50 50" fill="none" xmlns="http://www.w3.org/2000/svg">
<g clip-path="url(#clip0_6182_7514)">
<path d="M27.3496 0.5C36.7988 0.5 44.9909 5.91138 49.0322 13.8232L41.9902 17.9111C39.3657 12.4429 33.7977 8.66699 27.3496 8.66699C21.5125 8.66711 16.3957 11.7618 13.5322 16.4043L13.0625 17.167H25.1924V23.667H11.1494L11.125 24.1406C11.1103 24.4252 11.1025 24.7119 11.1025 25C11.1025 25.8769 11.1722 26.7381 11.3047 27.5781L11.3711 28H25.1924V34.5H14.0908L14.752 35.3154C17.7299 38.9868 22.2672 41.3329 27.3496 41.333C34.0543 41.333 39.8069 37.2506 42.2891 31.4277L49.3545 35.5293C45.4373 43.7926 37.055 49.5 27.3496 49.5C17.3615 49.4999 8.77436 43.4553 5.01367 34.8008L4.88281 34.5H0.5V28H3.16113L3.10645 27.4512C3.02686 26.6452 2.98633 25.8273 2.98633 25C2.98633 24.7266 2.99116 24.4539 3 24.1826L3.0166 23.667H0.5V17.167H4.25586L4.37305 16.832C7.71869 7.31501 16.7444 0.500142 27.3496 0.5Z" stroke="#9F6C4D"/>
</g>
<defs>
<clipPath id="clip0_6182_7514">
<rect width="50" height="50" fill="white"/>
</clipPath>
</defs>
</svg>
