<svg width="430" height="483" viewBox="0 0 430 483" fill="none" xmlns="http://www.w3.org/2000/svg">
<g clip-path="url(#clip0_8127_10660)">
<path d="M153.541 116.757C202.086 73.4896 229.087 36.1207 225.062 3.74412C228.609 7.9182 256.737 46.6852 261.387 120.524C266.324 198.908 172.762 255.539 121.229 330.313C72.932 400.393 118.727 447.234 134.113 457.352C145.782 465.026 192.147 491.551 143.496 471.178C94.8451 450.806 32.3473 417.251 23.4154 325.886C15.9173 249.188 104.996 160.025 153.541 116.757Z" fill="#ECEFE9"/>
<path d="M347.439 137.069C316.926 79.6431 276.17 33.8329 229.695 0.721119C225.028 3.58855 289.517 65.2857 301.084 176.022C312.65 286.758 218.513 343.38 194.069 386.42C169.626 429.46 175.139 483.686 188.092 482.633C240.662 478.361 333.067 451.545 369.905 367.459C400.829 296.872 389.691 216.587 347.439 137.069Z" fill="#ECEFE9"/>
</g>
<defs>
<clipPath id="clip0_8127_10660">
<rect width="430" height="483" fill="white"/>
</clipPath>
</defs>
</svg>
