<svg width="131" height="61" viewBox="0 0 131 61" fill="none" xmlns="http://www.w3.org/2000/svg">
<path d="M43.8191 37.8879C42.423 22.9167 21.8443 9.538 25.1908 0C25.1908 0 13.774 12.2204 20.1288 24.045C26.4657 35.834 36.0885 43.5504 31.9726 53.5437C30.7126 56.7684 25.8469 59.2263 21.0811 60.1449C25.7219 60.3564 45.5753 56.7337 43.8191 37.8879ZM22.7063 50.1758C21.1147 51.9643 15.7458 54.1502 14.7759 53.6285C13.806 53.1069 13.6821 52.8336 13.3841 51.4179C13.085 50.0023 12.3153 50.2005 11.8668 49.7539C11.8175 49.1829 12.3646 48.2385 12.3646 48.2385C12.3646 48.2385 10.8234 47.6179 10.5998 47.1455C11.0965 46.3755 11.0471 45.0588 10.3007 44.6865C9.55558 44.3137 8.63776 44.042 8.16272 43.3455C7.5052 42.3761 8.68548 42.4011 9.68464 40.6617C11.3389 37.7827 10.2275 34.529 9.74565 32.7552C9.11687 30.4369 9.74836 28.8073 10.1109 27.5554C11.2611 23.5789 14.1056 19.509 16.0199 17.0774C16.7398 11.4186 19.2294 5.33094 25.1908 0C9.16297 6.52017 -8.35043 32.2584 4.37648 50.0768C7.6367 54.6399 17.4532 60.053 21.0811 60.1449C24.0644 56.5013 23.228 50.9212 22.7063 50.1758Z" fill="#202325"/>
<path fill-rule="evenodd" clip-rule="evenodd" d="M108.716 35.4258C109.433 35.4258 110.057 35.5915 110.583 35.9268C110.982 36.1811 111.298 36.4915 111.529 36.8564V35.5342H112.673V43.0986H111.529V41.7539C111.293 42.1232 110.973 42.4385 110.57 42.6982C110.044 43.0385 109.419 43.206 108.702 43.2061C108.02 43.206 107.402 43.0451 106.851 42.7207C106.299 42.3961 105.868 41.9369 105.559 41.3457C105.249 40.7539 105.096 40.0716 105.096 39.3027C105.096 38.5339 105.249 37.854 105.559 37.2666C105.868 36.6798 106.3 36.2253 106.852 35.9053C107.403 35.5856 108.026 35.4258 108.716 35.4258ZM108.891 36.4492C108.385 36.4493 107.934 36.5618 107.537 36.7861C107.141 37.0099 106.829 37.3353 106.599 37.7646C106.37 38.1926 106.253 38.7043 106.253 39.3027C106.253 39.8917 106.369 40.4034 106.599 40.8408C106.829 41.2795 107.142 41.6117 107.538 41.8398C107.935 42.0685 108.385 42.1835 108.891 42.1836C109.377 42.1836 109.821 42.0667 110.224 41.833C110.625 41.6002 110.942 41.2673 111.177 40.833C111.41 40.4003 111.529 39.8956 111.529 39.3164C111.529 38.7368 111.41 38.2316 111.177 37.7988C110.942 37.3647 110.625 37.0326 110.224 36.7998C109.821 36.5664 109.377 36.4492 108.891 36.4492Z" fill="#202325"/>
<path d="M61.2441 40.7051C61.2441 41.4465 61.0154 42.052 60.5527 42.5098C60.09 42.9678 59.4741 43.1923 58.7158 43.1924C57.9301 43.1924 57.2927 42.9534 56.8164 42.4678C56.3403 41.982 56.1074 41.3277 56.1074 40.5166V40.417H57.2627L57.2646 40.5146C57.2733 41.0113 57.3978 41.4071 57.6289 41.71C57.8518 42.0018 58.2064 42.1562 58.7158 42.1562C59.1994 42.1562 59.5398 42.0148 59.7578 41.748L59.8379 41.6416C60.0115 41.3848 60.0996 41.0737 60.0996 40.7051V33.4697H61.2441V40.7051Z" fill="#202325"/>
<path d="M64.5615 37.7256L68.4746 33.502L68.5049 33.4697H69.9795L69.8223 33.6387L65.4746 38.2764L70.0215 43.0986H68.5049L68.4756 43.0664L64.5615 38.8936V43.0986H63.418V33.4697H64.5615V37.7256Z" fill="#202325"/>
<path d="M75.9189 38.6641L78.7119 35.5674L78.7412 35.5342H80.3408L76.752 39.3018L80.3682 43.0986H78.8096L78.7793 43.0664L75.9189 39.9502V43.0986H74.7744V32.917H75.9189V38.6641Z" fill="#202325"/>
<path d="M82.3926 43.0986H81.248V32.917H82.3926V43.0986Z" fill="#202325"/>
<path d="M85.4814 43.0986H84.3369V35.5342H85.4814V43.0986Z" fill="#202325"/>
<path d="M90.9785 35.3994C91.8821 35.3994 92.6284 35.6793 93.207 36.2441C93.7893 36.8124 94.0732 37.6309 94.0732 38.6826V43.0986H92.9424V38.79C92.9423 38.0057 92.7469 37.4225 92.3701 37.0244C91.9924 36.6257 91.4742 36.4219 90.8037 36.4219C90.1165 36.4219 89.5776 36.638 89.1768 37.0645C88.7779 37.4889 88.5704 38.1214 88.5703 38.9785V43.0986H87.4258V35.5342H88.5703V36.5322C88.7952 36.2135 89.0835 35.9585 89.4346 35.7686C89.8912 35.5216 90.4067 35.3995 90.9785 35.3994Z" fill="#202325"/>
<path d="M97.1084 43.0986H95.9639V35.5342H97.1084V43.0986Z" fill="#202325"/>
<path d="M100.196 38.665L102.99 35.5674L103.02 35.5342H104.619L101.03 39.3018L104.646 43.0986H103.088L103.058 43.0664L100.196 39.9492V43.0986H99.0527V32.917H100.196V38.665Z" fill="#202325"/>
<path d="M87.2891 34.3848H82.5166V33.457H87.2891V34.3848Z" fill="#202325"/>
<path d="M96.5361 32.7559C96.7505 32.7559 96.937 32.831 97.0908 32.9795C97.2461 33.1297 97.3241 33.3197 97.3242 33.543C97.3242 33.7663 97.247 33.959 97.0928 34.1133C96.9393 34.2668 96.7517 34.3447 96.5361 34.3447C96.3204 34.3447 96.1328 34.2668 95.9795 34.1133C95.8249 33.9589 95.748 33.7662 95.748 33.543C95.7481 33.3201 95.8251 33.1298 95.9805 32.9795C96.1341 32.8308 96.3215 32.7559 96.5361 32.7559Z" fill="#202325"/>
<path fill-rule="evenodd" clip-rule="evenodd" d="M86.0771 19.6172C86.7934 19.6172 87.4254 19.7743 87.9688 20.0898C88.5097 20.4044 88.9276 20.829 89.2197 21.3623C89.5116 21.895 89.6572 22.4851 89.6572 23.1299C89.6572 23.4542 89.6483 23.7058 89.6299 23.8818L89.6201 23.9717H83.5273C83.5648 24.47 83.6929 24.8951 83.9102 25.249C84.1436 25.6296 84.4498 25.9159 84.8281 26.1094C85.209 26.3039 85.6249 26.4023 86.0771 26.4023C86.6718 26.4023 87.1654 26.2579 87.5635 25.9756C87.9622 25.6924 88.2256 25.3123 88.3545 24.8311L88.374 24.7568H89.5771L89.5459 24.8809C89.3607 25.6219 88.9638 26.2278 88.3574 26.6953C87.7477 27.1655 86.9849 27.3975 86.0771 27.3975C85.3698 27.3974 84.7318 27.2392 84.167 26.9199C83.6018 26.6002 83.1586 26.1454 82.8398 25.5586C82.5206 24.9707 82.3623 24.2857 82.3623 23.5078C82.3624 22.7301 82.5183 22.0435 82.833 21.4512C83.1472 20.8596 83.5878 20.4044 84.1533 20.0889C84.7185 19.7741 85.3608 19.6172 86.0771 19.6172ZM86.0371 20.627C85.3594 20.627 84.7856 20.8436 84.3105 21.2754C83.8606 21.6844 83.599 22.2569 83.5303 23.0029H88.498C88.4927 22.5121 88.3878 22.0956 88.1836 21.751C87.9639 21.3808 87.665 21.1019 87.2871 20.9131C86.9064 20.7227 86.4897 20.627 86.0371 20.627Z" fill="#202325"/>
<path fill-rule="evenodd" clip-rule="evenodd" d="M102.263 19.6172C102.98 19.6172 103.604 19.7837 104.131 20.1191C104.529 20.373 104.845 20.6819 105.076 21.0459V19.7256H106.221V27.29H105.076V25.9453C104.839 26.3146 104.52 26.6297 104.118 26.8896C103.591 27.2297 102.967 27.3975 102.249 27.3975C101.568 27.3974 100.95 27.2363 100.398 26.9121C99.8467 26.5877 99.4149 26.1281 99.1055 25.5371C98.7958 24.9451 98.6426 24.2629 98.6426 23.4941C98.6426 22.7257 98.7955 22.0455 99.1055 21.458C99.415 20.8713 99.8466 20.4167 100.398 20.0967C100.95 19.7769 101.573 19.6173 102.263 19.6172ZM102.438 20.6406C101.932 20.6407 101.482 20.7539 101.085 20.9785C100.689 21.2022 100.375 21.5269 100.146 21.9561C99.9165 22.3839 99.7999 22.8959 99.7998 23.4941C99.7998 24.083 99.9171 24.5951 100.146 25.0322C100.377 25.4707 100.689 25.8031 101.085 26.0312C101.482 26.2598 101.933 26.375 102.438 26.375C102.925 26.375 103.368 26.2578 103.771 26.0244C104.172 25.7913 104.49 25.4589 104.725 25.0244C104.958 24.5918 105.076 24.0871 105.076 23.5078C105.076 22.9283 104.958 22.4229 104.725 21.9902C104.49 21.5563 104.172 21.2242 103.771 20.9912C103.368 20.7579 102.925 20.6407 102.438 20.6406Z" fill="#202325"/>
<path fill-rule="evenodd" clip-rule="evenodd" d="M119.999 19.6172C120.715 19.6172 121.347 19.7743 121.891 20.0898C122.432 20.4044 122.85 20.8289 123.143 21.3623C123.434 21.895 123.579 22.4851 123.579 23.1299C123.579 23.4542 123.57 23.7058 123.552 23.8818L123.543 23.9717H117.45C117.488 24.4699 117.615 24.8951 117.832 25.249C118.065 25.6296 118.372 25.9159 118.75 26.1094C119.131 26.304 119.547 26.4023 119.999 26.4023C120.594 26.4023 121.088 26.258 121.486 25.9756C121.885 25.6925 122.148 25.3122 122.276 24.8311L122.297 24.7568H123.499L123.469 24.8809C123.284 25.622 122.886 26.2277 122.279 26.6953C121.67 27.1655 120.907 27.3975 119.999 27.3975C119.291 27.3974 118.654 27.2392 118.089 26.9199C117.524 26.6003 117.081 26.1452 116.763 25.5586C116.443 24.9707 116.284 24.2857 116.284 23.5078C116.284 22.7301 116.44 22.0434 116.755 21.4512C117.069 20.8595 117.511 20.4044 118.076 20.0889C118.641 19.7743 119.283 19.6173 119.999 19.6172ZM119.959 20.627C119.281 20.627 118.708 20.8435 118.232 21.2754C117.783 21.6844 117.522 22.257 117.453 23.0029H122.421C122.416 22.5121 122.31 22.0956 122.105 21.751C121.886 21.3808 121.587 21.1019 121.209 20.9131C120.828 20.7226 120.412 20.627 119.959 20.627Z" fill="#202325"/>
<path d="M127.539 19.6172C128.347 19.6172 129.01 19.8225 129.518 20.2402C130.027 20.6604 130.3 21.2394 130.337 21.9648L130.342 22.0703H129.198L129.192 21.9766C129.167 21.5703 129.01 21.2474 128.722 21.001C128.435 20.7559 128.036 20.627 127.513 20.627C127.052 20.627 126.688 20.7353 126.413 20.9434C126.138 21.1517 126.007 21.4031 126.007 21.7002C126.007 21.9656 126.087 22.1765 126.242 22.3398C126.407 22.5126 126.613 22.6483 126.861 22.7471C127.118 22.8486 127.465 22.9626 127.904 23.0879C128.436 23.2323 128.863 23.3726 129.184 23.5098C129.512 23.6507 129.795 23.8578 130.029 24.1299C130.273 24.4124 130.395 24.784 130.404 25.2324V25.2344C130.404 25.6494 130.29 26.022 130.062 26.3496C129.835 26.676 129.52 26.9319 129.119 27.1182C128.717 27.3054 128.257 27.3975 127.741 27.3975C126.881 27.3974 126.168 27.1986 125.612 26.792C125.054 26.3837 124.74 25.8241 124.675 25.1221L124.664 25.0127H125.835L125.845 25.1016C125.887 25.4861 126.067 25.7966 126.392 26.0371C126.715 26.2767 127.158 26.4023 127.729 26.4023C128.226 26.4023 128.602 26.284 128.871 26.0605C129.142 25.8357 129.273 25.5624 129.273 25.2344C129.273 25.0066 129.201 24.8257 129.06 24.6846C128.947 24.572 128.811 24.4756 128.65 24.3965L128.481 24.3223C128.361 24.2761 128.217 24.2286 128.052 24.1787L127.487 24.0225C126.936 23.8781 126.485 23.7324 126.138 23.5859C125.782 23.4361 125.479 23.213 125.23 22.918C124.973 22.612 124.85 22.207 124.85 21.7139C124.85 21.3327 124.964 20.9798 125.191 20.6582C125.419 20.3357 125.74 20.0824 126.149 19.8965C126.56 19.7101 127.024 19.6172 127.539 19.6172Z" fill="#202325"/>
<path d="M71.2266 25.7676C71.4413 25.7676 71.6268 25.8438 71.7764 25.9932C71.927 26.1435 72.0009 26.334 72.001 26.5557C72.001 26.7779 71.9268 26.9693 71.7773 27.124C71.6281 27.2781 71.4423 27.3574 71.2266 27.3574C71.0038 27.3573 70.8131 27.2793 70.6631 27.124C70.514 26.9694 70.4395 26.7778 70.4395 26.5557C70.4396 26.3339 70.5136 26.1434 70.6641 25.9932C70.8143 25.8427 71.0048 25.7677 71.2266 25.7676Z" fill="#202325"/>
<path fill-rule="evenodd" clip-rule="evenodd" d="M59.4521 17.6621C60.5069 17.6621 61.4185 17.853 62.1816 18.2393C62.9451 18.6256 63.5307 19.1841 63.9365 19.9121C64.3418 20.64 64.5429 21.5027 64.543 22.4961C64.543 23.4809 64.3419 24.3369 63.9365 25.0605C63.5306 25.7843 62.9445 26.338 62.1807 26.7197C61.4176 27.1012 60.5068 27.29 59.4521 27.29H56.5605V17.6621H59.4521ZM57.7041 26.3076H59.4521C60.748 26.3076 61.7195 25.968 62.3828 25.3047C63.047 24.6403 63.3848 23.7087 63.3848 22.4961C63.3847 21.2745 63.0466 20.3326 62.3818 19.6592C61.7185 18.9876 60.7473 18.6445 59.4521 18.6445H57.7041V26.3076Z" fill="#202325"/>
<path d="M69.749 20.7754H69.3926C68.7281 20.7755 68.2045 20.9543 67.8135 21.3027C67.4306 21.644 67.2266 22.2261 67.2266 23.0762V27.29H66.083V19.7256H67.2266V20.7432C67.4303 20.4307 67.6978 20.1768 68.0273 19.9824C68.4731 19.7198 69.0158 19.5909 69.6494 19.5908H69.749V20.7754Z" fill="#202325"/>
<path d="M78.2598 26.3213H81.6455V27.29H77.1162V17.6621H78.2598V26.3213Z" fill="#202325"/>
<path d="M92.3281 27.29H91.1836V19.7256H92.3281V27.29Z" fill="#202325"/>
<path d="M95.7002 19.7256H97.7227V20.7217H95.7002V25.1934C95.7002 25.6367 95.7857 25.9126 95.9268 26.0537L95.9863 26.1045C96.1382 26.2157 96.389 26.2802 96.7598 26.2803H97.7227V27.29H96.6113C95.9327 27.29 95.4082 27.1318 95.0586 26.7969C94.7065 26.4593 94.542 25.9153 94.542 25.1934V20.7217H93.5176V19.7256H94.542V17.8779H95.7002V19.7256Z" fill="#202325"/>
<path d="M111.731 19.5908C112.635 19.5908 113.38 19.8712 113.959 20.4355C114.541 21.0038 114.826 21.8223 114.826 22.874V27.29H113.695V22.9814C113.695 22.1972 113.499 21.6136 113.122 21.2158C112.744 20.8172 112.226 20.6133 111.556 20.6133C110.869 20.6134 110.33 20.8299 109.93 21.2559C109.531 21.6803 109.322 22.3137 109.322 23.1709V27.29H108.179V19.7256H109.322V20.7246C109.547 20.4056 109.835 20.1498 110.187 19.96C110.643 19.7129 111.159 19.5909 111.731 19.5908Z" fill="#202325"/>
<path d="M105.047 18.5762H100.274V17.6484H105.047V18.5762Z" fill="#202325"/>
<path d="M91.7559 16.9473C91.9702 16.9473 92.1569 17.0227 92.3105 17.1709C92.4657 17.3211 92.5438 17.5115 92.5439 17.7344C92.5439 17.9299 92.4844 18.1018 92.3662 18.2451L92.3125 18.3047C92.159 18.4579 91.9714 18.5361 91.7559 18.5361C91.5402 18.5361 91.3525 18.4579 91.1992 18.3047C91.0453 18.1503 90.9678 17.9576 90.9678 17.7344C90.9679 17.5117 91.0452 17.321 91.2002 17.1709C91.3537 17.0224 91.5412 16.9473 91.7559 16.9473Z" fill="#202325"/>
</svg>
