<svg xmlns="http://www.w3.org/2000/svg" xmlns:xlink="http://www.w3.org/1999/xlink"><symbol id="sprite-accessibility" viewBox="0 0 24 24"><path d="M11.0002 -0.0136719C11.976 -0.0136719 12.9184 0.342935 13.6496 0.989258C14.3807 1.63569 14.8503 2.5275 14.9699 3.49609C15.0895 4.46471 14.8509 5.44413 14.299 6.24902C13.747 7.05374 12.9193 7.62884 11.9728 7.86621C11.9848 7.91017 11.9941 7.95485 12.0002 8V11H18.0002C18.2653 11 18.5197 11.1055 18.7072 11.293C18.8947 11.4805 19.0001 11.7348 19.0002 12C19.0002 12.2652 18.8947 12.5195 18.7072 12.707C18.5196 12.8946 18.2654 13 18.0002 13H12.0002C12.0002 13.5304 12.2111 14.039 12.5861 14.4141C12.9611 14.7891 13.4697 15 14.0002 15H17.5587C18.1875 15.001 18.8009 15.1994 19.3107 15.5674C19.8204 15.9354 20.2016 16.4545 20.4005 17.0508L21.7209 21H23.0002C23.2653 21 23.5197 21.1055 23.7072 21.293C23.8947 21.4805 24.0001 21.7348 24.0002 22C24.0002 22.2652 23.8947 22.5195 23.7072 22.707C23.5196 22.8946 23.2654 23 23.0002 23H21.0002C20.7905 22.9998 20.5862 22.9341 20.4162 22.8115C20.2461 22.6888 20.1182 22.5154 20.0519 22.3164L18.508 17.6846C18.4416 17.4854 18.314 17.3112 18.1437 17.1885C17.9735 17.0659 17.7685 16.9999 17.5587 17H15.9308C15.7444 18.4794 15.1487 19.8775 14.2101 21.0361C13.2715 22.1947 12.0278 23.0683 10.6193 23.5576C9.21073 24.0469 7.6932 24.1319 6.23843 23.8047C4.78365 23.4774 3.44927 22.7504 2.38589 21.7051C1.3226 20.6598 0.572017 19.3385 0.219878 17.8896C-0.132221 16.4407 -0.0723453 14.9216 0.392729 13.5049C0.857818 12.0881 1.71031 10.8295 2.85269 9.87109C3.99501 8.91287 5.38265 8.29273 6.85855 8.08105C7.12095 8.04353 7.38754 8.1117 7.59976 8.27051C7.81213 8.42962 7.95272 8.66701 7.99039 8.92969C8.02805 9.19238 7.96006 9.45949 7.80093 9.67188C7.64181 9.88416 7.40438 10.0248 7.14175 10.0625C6.04523 10.2197 5.01365 10.6773 4.16128 11.3848C3.30871 12.0926 2.66798 13.023 2.31167 14.0723C1.95547 15.1213 1.89663 16.2487 2.14175 17.3291C2.387 18.4097 2.92702 19.4017 3.70132 20.1943C4.47566 20.987 5.45486 21.5499 6.52945 21.8203C7.60383 22.0906 8.73214 22.0581 9.78921 21.7266C10.8465 21.3949 11.7912 20.7762 12.5187 19.9404C13.2462 19.1046 13.7285 18.0841 13.9113 16.9912C12.8676 16.968 11.8744 16.5375 11.1437 15.792C10.4129 15.0463 10.0022 14.0441 10.0002 13V8C10.0062 7.95484 10.0155 7.91017 10.0275 7.86621C9.08095 7.62883 8.25329 7.05377 7.70132 6.24902C7.14935 5.44413 6.91082 4.46471 7.03042 3.49609C7.15004 2.5275 7.61957 1.6357 8.35074 0.989258C9.08188 0.34291 10.0243 -0.0136572 11.0002 -0.0136719ZM11.3908 2.03906C11.0028 1.96189 10.6 2.00097 10.2345 2.15234C9.86924 2.30371 9.55677 2.55992 9.33706 2.88867C9.11734 3.21752 9.00019 3.6045 9.00015 4C9.00015 4.53038 9.21109 5.039 9.58609 5.41406C9.96115 5.78912 10.4697 5.99998 11.0002 6C11.3957 6 11.7826 5.88285 12.1115 5.66309C12.4403 5.44335 12.6964 5.13099 12.8478 4.76562C12.9991 4.4003 13.0391 3.99819 12.9621 3.61035C12.8849 3.22239 12.6939 2.86564 12.4142 2.58594C12.1346 2.30641 11.7785 2.11628 11.3908 2.03906Z" fill="#596B73"/></symbol><use xlink:href="#sprite-accessibility" width="24" height="24" y="0"/><view id="sprite-accessibility-view" viewBox="0 0 24 24"/><symbol id="sprite-arrow" viewBox="0 0 30 24"><path d="m29.707 12-9.353 9.354-.707-.707 8.146-8.147H0v-1h27.793l-8.146-8.146.707-.708z"/></symbol><use xlink:href="#sprite-arrow" width="30" height="24" y="24"/><view id="sprite-arrow-view" viewBox="0 24 30 24"/><symbol fill="none" id="sprite-calendar" viewBox="0 0 18 18"><path d="M13 17V18H5V17H13ZM17 13V6.5C17 4.29086 15.2091 2.5 13 2.5H5C2.79086 2.5 1 4.29086 1 6.5V13C1 15.2091 2.79086 17 5 17V18C2.32472 18 0.140529 15.8989 0.00683594 13.2568L0 13V6.5C8.05347e-08 3.73858 2.23858 1.5 5 1.5H13L13.2568 1.50684C15.8989 1.64053 18 3.82472 18 6.5V13L17.9932 13.2568C17.8638 15.8138 15.8138 17.8638 13.2568 17.9932L13 18V17C15.2091 17 17 15.2091 17 13Z" fill="#596B73"/><path d="M5.75 5.625V17.25H4.75V5.625H5.75ZM9.5 5.625V17.25H8.5V5.625H9.5ZM13.25 5.625V17.25H12.25V5.625H13.25Z" fill="#596B73"/><path d="M17.25 6.5L0.75 6.5L0.75 5.5L17.25 5.5L17.25 6.5ZM17.25 10.25L0.75 10.25L0.75 9.25L17.25 9.25L17.25 10.25ZM17.25 14L0.75 14L0.75 13L17.25 13L17.25 14Z" fill="#596B73"/><path d="M5.75 0V1.5H4.75V0H5.75Z" fill="#596B73"/><path d="M13.25 0V1.5H12.25V0H13.25Z" fill="#596B73"/></symbol><use xlink:href="#sprite-calendar" width="18" height="18" y="48"/><view id="sprite-calendar-view" viewBox="0 48 18 18"/><symbol id="sprite-chevron" viewBox="0 0 11 10"><path d="m11.414 3.207-5 5a1 1 0 0 1-1.414 0l-5-5a1 1 0 1 1 1.414-1.414l4.293 4.293L10 1.793a1 1 0 0 1 1.414 1.414"/></symbol><use xlink:href="#sprite-chevron" width="11" height="10" y="66"/><view id="sprite-chevron-view" viewBox="0 66 11 10"/><symbol id="sprite-close" viewBox="0 0 24 24"><path d="M18.3 5.71 12 12l6.3 6.29-1.41 1.41-6.3-6.29-6.3 6.29-1.41-1.41L9.17 12 2.88 5.71 4.29 4.3l6.3 6.29 6.29-6.3z"/></symbol><use xlink:href="#sprite-close" width="24" height="24" y="76"/><view id="sprite-close-view" viewBox="0 76 24 24"/><symbol id="sprite-copy" viewBox="0 0 24 24"><path d="M16 1H6a2 2 0 0 0-2 2v12h2V3h10z"/><path d="M19 5h-9a2 2 0 0 0-2 2v14a2 2 0 0 0 2 2h9a2 2 0 0 0 2-2V7a2 2 0 0 0-2-2m0 16h-9V7h9z"/></symbol><use xlink:href="#sprite-copy" width="24" height="24" y="100"/><view id="sprite-copy-view" viewBox="0 100 24 24"/><symbol fill="none" id="sprite-email" viewBox="0 0 10 10"><path d="M9.5 1V9H0.5V1H9.5ZM1.5 8H8.5V2H1.5V8Z" fill="#202325"/><path d="M9.2998 2.40039L5 5.625L0.700195 2.40039L1.2998 1.59961L5 4.37402L8.7002 1.59961L9.2998 2.40039Z" fill="#202325"/></symbol><use xlink:href="#sprite-email" width="10" height="10" y="124"/><view id="sprite-email-view" viewBox="0 124 10 10"/><symbol id="sprite-facebook" viewBox="0 0 24 24"><path d="M14.325 3A4.625 4.625 0 0 0 9.7 7.625V10.2H7.225c-.124 0-.225.1-.225.225v3.4c0 .124.1.225.225.225H9.7v6.975c0 .124.1.225.225.225h3.4c.124 0 .225-.1.225-.225V14.05h2.497c.103 0 .193-.07.218-.17l.85-3.4a.225.225 0 0 0-.218-.28H13.55V7.625a.775.775 0 0 1 .775-.775h2.6c.124 0 .225-.1.225-.225v-3.4c0-.124-.1-.225-.225-.225z"/></symbol><use xlink:href="#sprite-facebook" width="24" height="24" y="134"/><view id="sprite-facebook-view" viewBox="0 134 24 24"/><symbol id="sprite-instagram" viewBox="0 0 24 24"><path d="M15.638 3H8.362A5.37 5.37 0 0 0 3 8.362v7.276A5.37 5.37 0 0 0 8.362 21h7.276A5.37 5.37 0 0 0 21 15.638V8.362A5.37 5.37 0 0 0 15.637 3m3.551 12.638a3.55 3.55 0 0 1-3.552 3.551H8.362a3.55 3.55 0 0 1-3.551-3.551V8.362a3.55 3.55 0 0 1 3.551-3.551h7.276a3.55 3.55 0 0 1 3.551 3.551z"/><path d="M12 7.345A4.66 4.66 0 0 0 7.345 12 4.66 4.66 0 0 0 12 16.655 4.66 4.66 0 0 0 16.655 12 4.66 4.66 0 0 0 12 7.345m0 7.5a2.845 2.845 0 1 1 0-5.69 2.845 2.845 0 0 1 0 5.69"/><path d="M16.664 8.495a1.116 1.116 0 1 0 0-2.231 1.116 1.116 0 0 0 0 2.231"/></symbol><use xlink:href="#sprite-instagram" width="24" height="24" y="158"/><view id="sprite-instagram-view" viewBox="0 158 24 24"/><symbol id="sprite-location" viewBox="0 0 10 10"><path d="M7.828 7.071 5.36 9.627a.5.5 0 0 1-.72 0L2.172 7.07H2.17A4.2 4.2 0 0 1 1 4.142a4.22 4.22 0 0 1 1.028-2.773l.01-.011.125-.136.006-.007A3.92 3.92 0 0 1 5 0a3.92 3.92 0 0 1 2.83 1.215A4.2 4.2 0 0 1 9 4.142 4.2 4.2 0 0 1 7.83 7.07zm-.72-.693L5 8.56 2.892 6.378A3.2 3.2 0 0 1 2 4.144V4.14a3.22 3.22 0 0 1 .78-2.11l.116-.127A2.92 2.92 0 0 1 5 1a2.92 2.92 0 0 1 2.107.906A3.2 3.2 0 0 1 8 4.14a3.2 3.2 0 0 1-.892 2.237Z" fill-rule="evenodd"/></symbol><use xlink:href="#sprite-location" width="10" height="10" y="182"/><view id="sprite-location-view" viewBox="0 182 10 10"/><symbol id="sprite-pdf" viewBox="0 0 10 15"><path d="M8.975 4.27 7.23 2.525A3.48 3.48 0 0 0 4.755 1.5H2.5A2.5 2.5 0 0 0 0 4v7a2.5 2.5 0 0 0 2.5 2.5h5A2.5 2.5 0 0 0 10 11V6.745A3.48 3.48 0 0 0 8.975 4.27m-.705.705q.24.24.405.525h-2.17a.5.5 0 0 1-.5-.5V2.83q.285.165.525.405L8.275 4.98zM9 11c0 .825-.675 1.5-1.5 1.5h-5c-.825 0-1.5-.675-1.5-1.5V4c0-.825.675-1.5 1.5-1.5h2.255c.08 0 .165 0 .245.01V5c0 .825.675 1.5 1.5 1.5h2.49c.01.08.01.16.01.245zM2.545 8H2c-.275 0-.5.225-.5.5v2.22c0 .175.14.31.31.31s.31-.14.31-.31v-.61h.42c.59 0 1.07-.475 1.07-1.055S3.13 8 2.54 8zm0 1.485H2.13v-.86h.42c.24 0 .445.195.445.43s-.205.43-.445.43zm5.965-1.17c0 .175-.14.31-.31.31h-.845v.57h.62c.175 0 .31.14.31.31s-.14.31-.31.31h-.62v.9c0 .175-.14.31-.31.31s-.31-.14-.31-.31V8.31c0-.175.14-.31.31-.31H8.2c.175 0 .31.14.31.31zm-3.465-.31H4.5c-.275 0-.5.225-.5.5v2.22c0 .175.14.28.31.28h.73c.59 0 1.07-.475 1.07-1.055v-.89c0-.58-.48-1.055-1.07-1.055zM5.49 9.95c0 .235-.205.43-.445.43H4.63V8.63h.42c.24 0 .445.195.445.43v.89z"/></symbol><use xlink:href="#sprite-pdf" width="10" height="15" y="192"/><view id="sprite-pdf-view" viewBox="0 192 10 15"/><symbol id="sprite-phone" viewBox="0 0 10 10"><path d="m6.13 5.585-.234.186a3.8 3.8 0 0 1-.965-.7 3.8 3.8 0 0 1-.7-.968l.184-.23a1.54 1.54 0 0 0 .41-1.042v-.002a1.54 1.54 0 0 0-.404-1.04l-.241-.312-.06-.077-.314-.406-.04-.044A1.53 1.53 0 0 0 2.695.495H2.68a1.53 1.53 0 0 0-1.053.42l-.376.327-.037.036a2.67 2.67 0 0 0-.717 1.886 4.2 4.2 0 0 0 .29 1.461 6 6 0 0 0 .136.331l.006.013a8.8 8.8 0 0 0 4.108 4.107l.007.003a4.8 4.8 0 0 0 1.456.408l.009.001a4 4 0 0 0 .33.017 2.67 2.67 0 0 0 1.905-.737l.033-.035.294-.339a1.536 1.536 0 0 0-.014-2.156l-.045-.04-.335-.26-.075-.057-.39-.3a1.54 1.54 0 0 0-1.038-.405h-.001a1.54 1.54 0 0 0-1.043.41m1.456.776-.002-.002.406.313.076.058v.001l.3.232a.536.536 0 0 1-.018.739l-.023.025-.288.332a1.67 1.67 0 0 1-1.18.446h-.011a3 3 0 0 1-.237-.012 3.8 3.8 0 0 1-1.143-.32 7.8 7.8 0 0 1-3.634-3.631 5 5 0 0 1-.111-.271l-.003-.008a3.2 3.2 0 0 1-.222-1.119v-.003a1.67 1.67 0 0 1 .432-1.162l.363-.316.02-.019a.53.53 0 0 1 .368-.149h.005a.53.53 0 0 1 .353.14l.29.374.002.002.059.076.255.332.034.04a.54.54 0 0 1 .148.369.54.54 0 0 1-.15.371l-.03.035-.387.486a.5.5 0 0 0-.07.502 4.8 4.8 0 0 0 1.035 1.555 4.8 4.8 0 0 0 1.553 1.038.5.5 0 0 0 .502-.07l.49-.39.034-.03a.54.54 0 0 1 .37-.149.54.54 0 0 1 .37.148" fill-rule="evenodd"/></symbol><use xlink:href="#sprite-phone" width="10" height="10" y="207"/><view id="sprite-phone-view" viewBox="0 207 10 10"/><symbol fill="none" id="sprite-schedule" viewBox="0 0 10 10"><path d="M9 5C9 2.79086 7.20914 1 5 1C2.79086 1 1 2.79086 1 5C1 7.20914 2.79086 9 5 9V10C2.23858 10 0 7.76142 0 5C0 2.23858 2.23858 0 5 0C7.76142 0 10 2.23858 10 5C10 7.76142 7.76142 10 5 10V9C7.20914 9 9 7.20914 9 5Z" fill="#596B73"/><path d="M5.5 2V4.79297L7.35352 6.64648L6.64648 7.35352L4.5 5.20703V2H5.5Z" fill="#596B73"/></symbol><use xlink:href="#sprite-schedule" width="10" height="10" y="217"/><view id="sprite-schedule-view" viewBox="0 217 10 10"/><symbol id="sprite-search" viewBox="0 0 18 18"><path d="M8.63379 0.83252C12.559 1.03133 15.6807 4.27689 15.6807 8.25146L15.6709 8.6333C15.5837 10.3551 14.9089 11.9212 13.8447 13.1382L17.1768 16.4702L16.4697 17.1772L13.1377 13.8452C11.8315 14.987 10.123 15.6801 8.25195 15.6802L7.86914 15.6704C4.07081 15.4777 1.0254 12.4317 0.833008 8.6333L0.823242 8.25146C0.823242 4.14878 4.14927 0.822754 8.25195 0.822754L8.63379 0.83252ZM8.25195 1.82275C4.70155 1.82275 1.82324 4.70106 1.82324 8.25146C1.82332 11.8018 4.7016 14.6802 8.25195 14.6802C11.8022 14.6801 14.6806 11.8018 14.6807 8.25146C14.6807 4.70111 11.8023 1.82283 8.25195 1.82275Z" fill="currentColor"/></symbol><use xlink:href="#sprite-search" width="18" height="18" y="227"/><view id="sprite-search-view" viewBox="0 227 18 18"/><symbol id="sprite-select" viewBox="0 0 12 8"><path d="M1.41.59 6 5.17 10.59.59 12 2 6 8 0 2z"/></symbol><use xlink:href="#sprite-select" width="12" height="8" y="245"/><view id="sprite-select-view" viewBox="0 245 12 8"/><symbol id="sprite-tiktok" viewBox="0 0 24 24"><path d="M20.541 10.869V7.54c-4.331-.183-4.483-4.137-4.483-4.509V3h-3.381v12.967a2.655 2.655 0 0 1-2.656 2.66 2.66 2.66 0 0 1-2.656-2.663 2.668 2.668 0 0 1 3.45-2.546V9.985A6.036 6.036 0 0 0 4.05 15.19a6.03 6.03 0 1 0 11.962 1.554c.046-.356.045-.686.045-1.029V9.332c1.558 1.416 4.483 1.537 4.483 1.537"/></symbol><use xlink:href="#sprite-tiktok" width="24" height="24" y="253"/><view id="sprite-tiktok-view" viewBox="0 253 24 24"/><symbol id="sprite-up" viewBox="0 0 23 22"><path d="m0 8.855 11-8.5a.75.75 0 0 1 .917 0l11 8.5A.75.75 0 0 1 22 10.042L11.458 1.896.918 10.042A.75.75 0 1 1 0 8.855"/><path d="m0 20.355 11-8.5a.75.75 0 0 1 .917 0l11 8.5A.75.75 0 1 1 22 21.542l-10.542-8.146-10.54 8.146A.75.75 0 0 1 0 20.355"/></symbol><use xlink:href="#sprite-up" width="23" height="22" y="277"/><view id="sprite-up-view" viewBox="0 277 23 22"/><symbol id="sprite-youtube" viewBox="0 0 24 24"><path fill-rule="evenodd" clip-rule="evenodd" d="M7.103 5.196a64 64 0 0 1 10.023 0l2.24.175a2.725 2.725 0 0 1 2.476 2.268c.516 3.09.516 6.243 0 9.333a2.725 2.725 0 0 1-2.476 2.267l-2.24.176a64 64 0 0 1-10.023 0l-2.24-.176a2.725 2.725 0 0 1-2.476-2.267 28.3 28.3 0 0 1 0-9.333A2.725 2.725 0 0 1 4.863 5.37zm3.011 9.58v-4.94a.3.3 0 0 1 .455-.258l4.117 2.47a.3.3 0 0 1 0 .515l-4.117 2.47a.3.3 0 0 1-.455-.258"/></symbol><use xlink:href="#sprite-youtube" width="24" height="24" y="299"/><view id="sprite-youtube-view" viewBox="0 299 24 24"/></svg>