<svg width="35" height="50" viewBox="0 0 35 50" fill="none" xmlns="http://www.w3.org/2000/svg">
<path d="M4 36.667H14.6667" stroke="#F4F7F1"/>
<path d="M4 40L20.6667 40" stroke="#F4F7F1"/>
<path d="M4 43.333L20.6667 43.333" stroke="#F4F7F1"/>
<rect x="0.5" y="1.83301" width="33.6667" height="47.6667" stroke="#F4F7F1"/>
<path d="M6.6665 4V0" stroke="#F4F7F1"/>
<path d="M4 4V0" stroke="#F4F7F1"/>
<path d="M9.3335 4V0" stroke="#F4F7F1"/>
<path d="M12 4V0" stroke="#F4F7F1"/>
<path d="M14.6665 4V0" stroke="#F4F7F1"/>
<path d="M17.3335 4V0" stroke="#F4F7F1"/>
<path d="M20 4V0" stroke="#F4F7F1"/>
<path d="M22.6665 4V0" stroke="#F4F7F1"/>
<path d="M25.3335 4V0" stroke="#F4F7F1"/>
<path d="M28 4V0" stroke="#F4F7F1"/>
<path d="M30.6665 4V0" stroke="#F4F7F1"/>
<rect x="3.8335" y="7.16699" width="27" height="23" stroke="#F4F7F1"/>
<path d="M19.5117 24.1709C19.5117 25.5832 20.5168 26.7956 21.9046 27.0575L24.9407 27.6304C26.3286 27.8922 27.3336 29.1046 27.3336 30.517" stroke="#F4F7F1"/>
<path d="M15.8223 24.1709C15.8223 25.5832 14.8172 26.7956 13.4294 27.0575L10.3933 27.6304C9.00543 27.8922 8.00038 29.1046 8.00038 30.517" stroke="#F4F7F1"/>
<path d="M17.8145 13.3232C20.0493 13.3232 22.1418 14.7169 22.5419 17.3374C22.9244 17.263 23.2063 17.298 23.2063 17.8198C23.2063 18.5318 22.9674 20.0068 22.2602 20.5192C21.5224 22.9283 19.7201 24.9823 17.8145 24.9823C15.9077 24.9823 14.1041 22.9257 13.3673 20.5146C12.665 19.9979 12.4277 18.5296 12.4277 17.8198C12.4277 17.3003 12.7071 17.2634 13.0871 17.3365C13.4876 14.7166 15.58 13.3232 17.8145 13.3232Z" fill="#9F6C4D" stroke="#F4F7F1"/>
<path d="M16.2487 16.3881C14.8191 18.7451 13.3522 20.9993 12.7301 21.292C12.4104 20.8739 11.6528 19.2996 11.1805 16.348C10.5902 12.6584 13.2467 10.0019 18.6334 10.8136C24.0202 11.6253 22.3337 17.0003 22.3337 17.0003C22.3337 17.0003 22.2492 16.348 21.954 15.6101C21.0372 13.3179 17.5289 14.2773 16.2487 16.3881Z" fill="#9F6C4D" stroke="#F4F7F1"/>
<path d="M24.6665 40.9524L26.8887 43.3333L29.9998 40" stroke="#F4F7F1"/>
</svg>
