<svg width="35" height="50" viewBox="0 0 35 50" fill="none" xmlns="http://www.w3.org/2000/svg">
<path d="M27.5 41.5L9.16699 41.5L9.16699 38.5L27.5 38.5L27.5 41.5Z" fill="#9F6C4D" stroke="#F4F7F1"/>
<path d="M8.42188 31.167L5.25977 49.5H8.24512L11.4062 31.167H8.42188Z" fill="#9F6C4D" stroke="#F4F7F1"/>
<path d="M26.9116 31.167L30.0737 49.5H27.0884L23.9272 31.167H26.9116Z" fill="#9F6C4D" stroke="#F4F7F1"/>
<circle cx="17.3333" cy="17.3333" r="16.8333" fill="#9F6C4D" stroke="#F4F7F1"/>
<circle cx="17.3335" cy="17.333" r="7.5" fill="#9F6C4D" stroke="#F4F7F1"/>
<circle cx="17.3332" cy="17.3337" r="4.16667" fill="#9F6C4D" stroke="#F4F7F1"/>
<circle cx="17.3335" cy="17.333" r="1.5" fill="#9F6C4D" stroke="#F4F7F1"/>
<path d="M16.9798 17.6869C17.175 17.8821 17.4916 17.8821 17.6869 17.6869C17.8821 17.4916 17.8821 17.175 17.6869 16.9798L17.3333 17.3333L16.9798 17.6869ZM17.3333 17.3333L17.6869 16.9798L8.35355 7.64645L8 8L7.64645 8.35355L16.9798 17.6869L17.3333 17.3333Z" fill="#F4F7F1"/>
<path d="M8.00016 5.33301V7.99967H5.3335" stroke="#F4F7F1"/>
<path d="M9.33317 6.66699V9.33366H6.6665" stroke="#F4F7F1"/>
<path d="M17.3335 32.6663V31.333" stroke="#F4F7F1"/>
<path d="M17.3335 4.00033V2.66699" stroke="#F4F7F1"/>
<path d="M2.33659 17.6631L3.66992 17.6631" stroke="#F4F7F1"/>
<path d="M31.0031 17.6631L32.3364 17.6631" stroke="#F4F7F1"/>
</svg>
