<svg width="42" height="50" viewBox="0 0 42 50" fill="none" xmlns="http://www.w3.org/2000/svg">
<mask id="path-1-inside-1_6001_2979" fill="white">
<path d="M17.9326 32.6943C19.4947 34.2564 22.0277 34.2564 23.5898 32.6943L27.3242 28.959L33.749 31.8145C36.8193 33.1791 38.9994 35.9944 39.5518 39.3086L41.333 50H0L1.78223 39.3086C2.33464 35.9946 4.51386 33.1791 7.58398 31.8145L14.1387 28.9014L17.9326 32.6943Z"/>
</mask>
<path d="M17.9326 32.6943L18.6397 31.9872L18.6396 31.9871L17.9326 32.6943ZM23.5898 32.6943L24.297 33.4014L24.297 33.4014L23.5898 32.6943ZM27.3242 28.959L27.7304 28.0452L27.1027 27.7662L26.617 28.252L27.3242 28.959ZM33.749 31.8145L34.1552 30.9006L34.1552 30.9006L33.749 31.8145ZM39.5518 39.3086L40.5382 39.1443L40.5382 39.1442L39.5518 39.3086ZM41.333 50V51H42.5134L42.3194 49.8357L41.333 50ZM0 50L-0.986389 49.8356L-1.1805 51H0V50ZM1.78223 39.3086L2.76862 39.473L2.76862 39.473L1.78223 39.3086ZM7.58398 31.8145L7.17786 30.9006L7.17781 30.9007L7.58398 31.8145ZM14.1387 28.9014L14.8457 28.1942L14.3601 27.7087L13.7325 27.9876L14.1387 28.9014ZM17.9326 32.6943L17.2255 33.4014C19.1781 35.3541 22.3443 35.3541 24.297 33.4014L23.5898 32.6943L22.8827 31.9872C21.7112 33.1588 19.8113 33.1588 18.6397 31.9872L17.9326 32.6943ZM23.5898 32.6943L24.297 33.4014L28.0314 29.666L27.3242 28.959L26.617 28.252L22.8826 31.9873L23.5898 32.6943ZM27.3242 28.959L26.9181 29.8728L33.3429 32.7283L33.749 31.8145L34.1552 30.9006L27.7304 28.0452L27.3242 28.959ZM33.749 31.8145L33.3429 32.7283C36.1062 33.9564 38.0682 36.4903 38.5654 39.473L39.5518 39.3086L40.5382 39.1442C39.9305 35.4986 37.5324 32.4017 34.1552 30.9006L33.749 31.8145ZM39.5518 39.3086L38.5654 39.4729L40.3466 50.1643L41.333 50L42.3194 49.8357L40.5382 39.1443L39.5518 39.3086ZM41.333 50V49H0V50V51H41.333V50ZM0 50L0.986389 50.1644L2.76862 39.473L1.78223 39.3086L0.795838 39.1442L-0.986389 49.8356L0 50ZM1.78223 39.3086L2.76862 39.473C3.26581 36.4903 5.22717 33.9564 7.99015 32.7283L7.58398 31.8145L7.17781 30.9007C3.80056 32.4018 1.40347 35.4989 0.795836 39.1442L1.78223 39.3086ZM7.58398 31.8145L7.99011 32.7283L14.5448 29.8152L14.1387 28.9014L13.7325 27.9876L7.17786 30.9006L7.58398 31.8145ZM14.1387 28.9014L13.4317 29.6086L17.2256 33.4015L17.9326 32.6943L18.6396 31.9871L14.8457 28.1942L14.1387 28.9014Z" fill="#F4F7F1" mask="url(#path-1-inside-1_6001_2979)"/>
<circle cx="20.6666" cy="20.6663" r="8.83333" stroke="#F4F7F1"/>
<circle cx="29.3334" cy="39.3337" r="2.16667" stroke="#F4F7F1"/>
<path d="M27.6667 30C30.3334 33.2 29.889 36.2222 29.3334 37.3333" stroke="#F4F7F1"/>
<path d="M12.3149 43.3667L10.3434 43.7034L9.89446 41.0748C9.58451 39.2601 10.8043 37.5378 12.619 37.2279C14.4337 36.9179 16.156 38.1377 16.466 39.9524L16.9149 42.581L14.9435 42.9177" stroke="#F4F7F1"/>
<path d="M13.6667 30C12.0667 34 12.3333 36.5556 12.6667 37.3333" stroke="#F4F7F1"/>
<path d="M23.6296 4.00293L23.9148 4.31641L24.2703 4.08691L28.0164 1.67773L26.906 9.45508L23.2039 9.08496C21.5166 8.91625 19.8169 8.91625 18.1296 9.08496L14.4265 9.45508L13.3162 1.67773L17.0632 4.08691L17.4187 4.31641L17.7039 4.00293L20.6667 0.742188L23.6296 4.00293Z" stroke="#F4F7F1"/>
<circle cx="17.3334" cy="19.3337" r="2.16667" stroke="#F4F7F1"/>
<circle cx="23.9999" cy="19.3337" r="2.16667" stroke="#F4F7F1"/>
<path d="M18.6667 18H22.6667" stroke="#F4F7F1"/>
<path d="M12 18H15.7001" stroke="#F4F7F1"/>
<path d="M25.6667 18H29.3332" stroke="#F4F7F1"/>
</svg>
