<svg width="37" height="50" viewBox="0 0 37 50" fill="none" xmlns="http://www.w3.org/2000/svg">
<path d="M2 45.167H34.667C35.4953 45.1672 36.167 45.8387 36.167 46.667V49.5H0.5V46.667C0.500001 45.8386 1.17157 45.167 2 45.167Z" stroke="#F4F7F1"/>
<path d="M34.0001 45.3337V34.667C34.0001 29.1441 29.5229 24.667 24.0001 24.667H12.6667C7.1439 24.667 2.66675 29.1441 2.66675 34.667V45.3337" stroke="#F4F7F1"/>
<path d="M2.66675 34.667L5.81524 32.8149C7.36739 31.9019 9.29446 31.9103 10.8386 32.8368C12.3773 33.76 14.2966 33.7718 15.8465 32.8677L18.5583 31.2858C20.1694 30.346 22.2208 30.6811 23.449 32.0848L23.5322 32.1799C24.8971 33.7397 27.2659 33.9033 28.8322 32.5458C30.1128 31.436 31.977 31.3183 33.387 32.2583L34.0001 32.667" stroke="#F4F7F1"/>
<path d="M20.6666 24.667V8.66699H15.3333V24.667" stroke="#F4F7F1"/>
<path d="M18.8839 21.153C18.4479 21.153 18.0379 21.063 17.6539 20.883C17.2739 20.703 16.9459 20.453 16.6699 20.133C16.3939 19.813 16.1959 19.441 16.0759 19.017L17.6479 18.597C17.6999 18.801 17.7919 18.977 17.9239 19.125C18.0599 19.273 18.2159 19.389 18.3919 19.473C18.5719 19.553 18.7559 19.593 18.9439 19.593C19.1919 19.593 19.4179 19.533 19.6219 19.413C19.8299 19.293 19.9939 19.131 20.1139 18.927C20.2379 18.723 20.2999 18.497 20.2999 18.249C20.2999 18.001 20.2379 17.775 20.1139 17.571C19.9939 17.367 19.8299 17.205 19.6219 17.085C19.4179 16.965 19.1919 16.905 18.9439 16.905C18.6399 16.905 18.3919 16.957 18.1999 17.061C18.0079 17.161 17.8639 17.257 17.7679 17.349L16.3879 16.929L16.6519 12.333H21.3679V13.857H17.5519L18.1279 13.317L17.9479 16.281L17.6719 15.945C17.8879 15.769 18.1339 15.641 18.4099 15.561C18.6859 15.481 18.9439 15.441 19.1839 15.441C19.7279 15.441 20.2059 15.563 20.6179 15.807C21.0339 16.047 21.3579 16.379 21.5899 16.803C21.8259 17.223 21.9439 17.705 21.9439 18.249C21.9439 18.793 21.8019 19.285 21.5179 19.725C21.2339 20.161 20.8599 20.509 20.3959 20.769C19.9319 21.025 19.4279 21.153 18.8839 21.153Z" fill="#9F6C4D"/>
<path d="M15.0067 20.973V14.109L13.3867 15.105V13.305L15.0067 12.333H16.6747V20.973H15.0067Z" fill="#9F6C4D"/>
<path d="M21.944 18.249C21.944 17.705 21.8258 17.223 21.5898 16.8031C21.3578 16.3791 21.0338 16.047 20.6178 15.807C20.2573 15.5935 19.8463 15.4736 19.3848 15.4469L19.1836 15.4411C18.9438 15.4411 18.6859 15.481 18.4102 15.5609C18.2579 15.605 18.1145 15.6639 17.9805 15.7373L18.0951 13.8571H21.3678V12.333H15.6504L15.6536 12.2757L15.6641 12.1781C15.7391 11.6966 16.1548 11.3331 16.6517 11.333H21.3678C21.9201 11.333 22.3678 11.7807 22.3678 12.333V13.8571C22.3678 14.4093 21.9201 14.8571 21.3678 14.8571H20.9629C21.0181 14.8859 21.0736 14.9143 21.1276 14.9463H21.127C21.6985 15.2782 22.1497 15.7426 22.4674 16.3232H22.4668C22.7934 16.9088 22.944 17.5599 22.944 18.249C22.944 18.9775 22.7506 19.6592 22.3581 20.2673L22.3561 20.2705C21.9819 20.8451 21.4866 21.3044 20.8848 21.6416L20.8789 21.6449C20.263 21.9846 19.5922 22.1526 18.8841 22.1527C18.3057 22.1527 17.7498 22.0328 17.2292 21.7887L17.2259 21.7868C16.7962 21.5832 16.415 21.3103 16.0853 20.973H16.6745V20.1377C16.9496 20.4553 17.2757 20.7041 17.6536 20.8831C17.9896 21.0406 18.3456 21.129 18.7214 21.1488L18.8841 21.1527C19.36 21.1526 19.8054 21.055 20.2201 20.859L20.3958 20.7692C20.8598 20.5092 21.2336 20.1609 21.5176 19.7249C21.766 19.34 21.9064 18.9154 21.9375 18.4508L21.944 18.249ZM19.3001 18.249C19.3001 18.1768 19.2842 18.1314 19.2591 18.0902C19.2567 18.0861 19.2543 18.0819 19.252 18.0778C19.221 18.0252 19.1829 17.9857 19.1224 17.9508L19.1146 17.9469C19.0718 17.9218 19.0224 17.9053 18.944 17.9053C18.7504 17.9053 18.6801 17.9386 18.6764 17.9404C18.6718 17.9429 18.6668 17.9451 18.6621 17.9476C18.5905 17.9849 18.5384 18.0162 18.5026 18.04C18.4958 18.0445 18.4901 18.0488 18.485 18.0524C18.5441 18.1432 18.5899 18.243 18.6172 18.3499C18.631 18.4041 18.6492 18.4333 18.6667 18.4541C18.7129 18.5031 18.7599 18.5372 18.8099 18.5628C18.863 18.5849 18.9053 18.5928 18.944 18.5928V19.5928L18.8034 19.5856C18.7104 19.5756 18.6183 19.5557 18.5273 19.5257L18.3919 19.473C18.2159 19.389 18.0598 19.2727 17.9238 19.1247C17.7919 18.9767 17.6998 18.8006 17.6478 18.5967L16.6745 18.8571V17.016L17.7676 17.3493C17.8636 17.2573 18.0079 17.1609 18.1999 17.0609C18.3919 16.9569 18.64 16.9053 18.944 16.9053L19.0358 16.9079C19.248 16.921 19.4433 16.98 19.6217 17.085C19.8297 17.205 19.9939 17.3673 20.1139 17.5713C20.2378 17.7752 20.3001 18.0011 20.3001 18.249L20.2969 18.3408C20.2833 18.553 20.2224 18.7483 20.1139 18.9268L20.0671 19.0016C19.9524 19.171 19.8038 19.3081 19.6217 19.4131C19.4178 19.533 19.1919 19.5928 18.944 19.5928V18.5928C19.0224 18.5928 19.0718 18.5762 19.1146 18.5511L19.1224 18.5465C19.1827 18.5117 19.221 18.4728 19.252 18.4202L19.2591 18.4079C19.2842 18.3667 19.3001 18.3213 19.3001 18.249Z" fill="#F4F7F1"/>
<path d="M16.6745 20.1377C16.9496 20.4553 17.2757 20.7041 17.6536 20.8831C17.6604 20.8863 17.6677 20.8885 17.6745 20.8916V20.973C17.6745 21.5253 17.2268 21.973 16.6745 21.973H15.0065C14.4543 21.9729 14.0065 21.5252 14.0065 20.973V15.8975L13.9102 15.9567C13.6016 16.1463 13.2146 16.1543 12.8984 15.9775C12.5825 15.8008 12.3868 15.4672 12.3867 15.1051V13.305C12.3867 12.9538 12.5712 12.6283 12.8724 12.4476L14.4922 11.4756L14.6126 11.4137C14.7366 11.3606 14.8706 11.333 15.0065 11.333H16.6745C17.2268 11.333 17.6745 11.7807 17.6745 12.333H15.0065L13.3867 13.305V15.1051L15.0065 14.109V20.973H16.6745V20.1377ZM17.6745 17.3206V18.6807C17.6656 18.6531 17.6551 18.6254 17.6478 18.5967L16.6745 18.8571V17.016L17.6745 17.3206Z" fill="#F4F7F1"/>
<path d="M7.33325 36.667V39.3337" stroke="#F4F7F1"/>
<path d="M14 39.333V41.9997" stroke="#F4F7F1"/>
<path d="M22 36V38.6667" stroke="#F4F7F1"/>
<path d="M28 40V42.6667" stroke="#F4F7F1"/>
<path d="M19.8508 3.41699C20.3723 4.30634 20.2364 5.4492 19.5266 6.18066C18.6818 7.05087 17.3188 7.05076 16.4739 6.18066C15.7641 5.44921 15.6267 4.30609 16.1477 3.41699L17.9993 0.854492L19.8508 3.41699Z" stroke="#F4F7F1"/>
</svg>
