<svg width="795" height="803" viewBox="0 0 795 803" fill="none" xmlns="http://www.w3.org/2000/svg">
<g clip-path="url(#clip0_8150_9145)">
<g style="mix-blend-mode:multiply">
<path d="M478.651 620.669C389.607 684.765 337.75 742.739 338.83 797.774C333.608 790.148 293.204 720.166 298.342 595.447C303.796 463.05 470.722 384.42 570.301 267.978C663.627 158.846 594.992 72.2185 570.946 52.5431C552.71 37.6215 479.557 -15.0141 557.625 27.6983C635.692 70.4107 734.685 137.67 733.66 292.55C732.799 422.566 567.695 556.573 478.651 620.669Z" fill="#9A694B"/>
<path d="M156.845 552.603C197.982 654.313 258.344 738.327 330.526 802.035C338.861 798.041 241.459 683.209 241.458 495.362C241.457 307.516 409.347 229.001 457.907 161.063C506.467 93.1243 506.719 1.164 484.8 0.660482C395.836 -1.38325 236.077 27.4192 159.525 162.062C95.2617 275.089 99.8818 411.763 156.845 552.603Z" fill="#9A694B"/>
</g>
</g>
<defs>
<clipPath id="clip0_8150_9145">
<rect width="795" height="803" fill="white"/>
</clipPath>
</defs>
</svg>
