<svg width="35" height="50" viewBox="0 0 35 50" fill="none" xmlns="http://www.w3.org/2000/svg">
<rect x="0.5" y="0.5" width="33.6667" height="45.6667" stroke="#F4F7F1"/>
<rect x="3.1665" y="3.16699" width="28.3333" height="40.3333" stroke="#F4F7F1"/>
<path d="M12 8.66699H22.6667" stroke="#F4F7F1"/>
<path d="M12 22H22.6667" stroke="#F4F7F1"/>
<path d="M8 12L26.6667 12" stroke="#F4F7F1"/>
<path d="M8 15.333L26.6667 15.333" stroke="#F4F7F1"/>
<path d="M10 25.333L24.6667 25.333" stroke="#F4F7F1"/>
<path d="M10.3335 40.667H17.0002V50.0003H8.3335L6.3335 46.0003L10.3335 40.667Z" fill="#9F6C4D"/>
<path d="M23.6665 40.667H16.9998V50.0003H25.6665L27.6665 46.0003L23.6665 40.667Z" fill="#9F6C4D"/>
<path d="M17.9644 31.9492L18.1909 32.2236L18.5239 32.0996L19.9409 31.5713L20.1938 33.0635L20.2524 33.4141L20.603 33.4736L22.0942 33.7246L21.5669 35.1436L21.4438 35.4766L21.7173 35.7021L22.8823 36.666L21.7173 37.6309L21.4438 37.8574L21.5669 38.1904L22.0942 39.6074L20.603 39.8604L20.2524 39.9189L20.1938 40.2695L19.9409 41.7607L18.5239 41.2334L18.1909 41.1104L17.9644 41.3838L16.9995 42.5488L16.0356 41.3838L15.8101 41.1104L15.4771 41.2334L14.0581 41.7607L13.8071 40.2695L13.7476 39.9189L13.397 39.8604L11.9048 39.6074L12.4331 38.1904L12.5571 37.8574L12.2827 37.6309L11.1167 36.666L12.2827 35.7021L12.5571 35.4766L12.4331 35.1436L11.9048 33.7246L13.397 33.4736L13.7476 33.4141L13.8071 33.0635L14.0581 31.5713L15.4771 32.0996L15.8101 32.2236L16.0356 31.9492L16.9995 30.7832L17.9644 31.9492Z" stroke="#F4F7F1"/>
<path d="M8.3335 46.3333L7.93097 46.0367L8.24405 46.8253L8.3335 46.3333ZM13.6668 49.3333L13.26 49.624L14.1367 49.5042L13.6668 49.3333ZM12.0002 47L12.407 46.7094L12.2891 46.5443L12.0896 46.5081L12.0002 47ZM13.0002 40L12.5976 39.7034L7.93097 46.0367L8.3335 46.3333L8.73602 46.6299L13.4027 40.2966L13.0002 40ZM13.6668 49.3333L14.1367 49.5042L16.8034 42.1709L16.3335 42L15.8636 41.8291L13.1969 49.1625L13.6668 49.3333ZM8.3335 46.3333L8.24405 46.8253L11.9107 47.4919L12.0002 47L12.0896 46.5081L8.42294 45.8414L8.3335 46.3333ZM12.0002 47L11.5933 47.2906L13.26 49.624L13.6668 49.3333L14.0737 49.0427L12.407 46.7094L12.0002 47Z" fill="#F4F7F1"/>
<path d="M25.6665 46.3333L26.069 46.0367L25.7559 46.8253L25.6665 46.3333ZM20.3332 49.3333L20.74 49.624L19.8633 49.5042L20.3332 49.3333ZM21.9998 47L21.593 46.7094L21.7109 46.5443L21.9104 46.5081L21.9998 47ZM20.9998 40L21.4024 39.7034L26.069 46.0367L25.6665 46.3333L25.264 46.6299L20.5973 40.2966L20.9998 40ZM20.3332 49.3333L19.8633 49.5042L17.1966 42.1709L17.6665 42L18.1364 41.8291L20.8031 49.1625L20.3332 49.3333ZM25.6665 46.3333L25.7559 46.8253L22.0893 47.4919L21.9998 47L21.9104 46.5081L25.5771 45.8414L25.6665 46.3333ZM21.9998 47L22.4067 47.2906L20.74 49.624L20.3332 49.3333L19.9263 49.0427L21.593 46.7094L21.9998 47Z" fill="#F4F7F1"/>
</svg>
